<svg width="121" height="17" viewBox="0 0 121 17" fill="none" xmlns="http://www.w3.org/2000/svg">
<path d="M20.1361 6.5069H12.6505L10.3296 0L8.00879 6.5069H0.523193L6.57051 10.5224L4.28233 17L10.3296 12.9845L16.377 17L14.0561 10.4931L20.1361 6.5069Z" fill="#FFCE31"/>
<path d="M45.197 6.5069H37.7114L35.3906 0L33.0697 6.5069H25.5841L31.6314 10.5224L29.3432 17L35.3906 12.9845L41.4379 17L39.117 10.4931L45.197 6.5069Z" fill="#FFCE31"/>
<path d="M70.2579 6.5069H62.7723L60.4515 0L58.1306 6.5069H50.645L56.6923 10.5224L54.4042 17L60.4515 12.9845L66.4988 17L64.1779 10.4931L70.2579 6.5069Z" fill="#FFCE31"/>
<path d="M95.319 6.5069H87.8334L85.5125 0L83.1916 6.5069H75.7061L81.7534 10.5224L79.4652 17L85.5125 12.9845L91.5598 17L89.239 10.4931L95.319 6.5069Z" fill="#FFCE31"/>
<path d="M120.38 6.5069H112.894L110.573 0L108.253 6.5069H100.767L106.814 10.5224L104.526 17L110.573 12.9845L116.621 17L114.3 10.4931L120.38 6.5069Z" fill="#FFCE31"/>
<path fill-rule="evenodd" clip-rule="evenodd" d="M110.573 12.9845L116.621 17L114.3 10.4931L120.38 6.5069H112.894L110.573 0L110.573 1.06951e-05L110.573 12.9845Z" fill="#F2F1F1"/>
</svg>
