<svg width="1032" height="1124" viewBox="0 0 1032 1124" fill="none" xmlns="http://www.w3.org/2000/svg">
<path d="M0 0H922L789.376 722.754C779.539 776.367 737.298 818.15 683.581 827.404L-45.5 953L0 0Z" fill="url(#paint0_linear_784_1292)"/>
<circle cx="794" cy="150" r="211.5" stroke="white" stroke-opacity="0.3" stroke-dasharray="10 10"/>
<circle cx="720.121" cy="790.121" r="177" transform="rotate(29.6958 720.121 790.121)" stroke="white" stroke-opacity="0.3" stroke-dasharray="4 4"/>
<circle cx="691.121" cy="775.121" r="222.162" transform="rotate(-103.703 691.121 775.121)" stroke="white" stroke-opacity="0.3"/>
<circle cx="667.106" cy="758.265" r="266.962" transform="rotate(29.6958 667.106 758.265)" stroke="white" stroke-opacity="0.3" stroke-dasharray="4 4"/>
<ellipse cx="211.5" cy="291.5" rx="153.5" ry="148.5" transform="rotate(-180 211.5 291.5)" fill="url(#paint1_linear_784_1292)" fill-opacity="0.7"/>
<ellipse cx="211.5" cy="291.5" rx="119.5" ry="115.5" transform="rotate(-180 211.5 291.5)" fill="url(#paint2_linear_784_1292)"/>
<ellipse cx="211.5" cy="291.5" rx="82.5" ry="79.5" transform="rotate(-180 211.5 291.5)" fill="url(#paint3_linear_784_1292)"/>
<defs>
<linearGradient id="paint0_linear_784_1292" x1="438.25" y1="0" x2="438.25" y2="953" gradientUnits="userSpaceOnUse">
<stop stop-color="#ED1C24"/>
<stop offset="1" stop-color="#CC0440"/>
</linearGradient>
<linearGradient id="paint1_linear_784_1292" x1="225.254" y1="241.635" x2="211.61" y2="440.008" gradientUnits="userSpaceOnUse">
<stop offset="0.156307" stop-color="#E91A28"/>
<stop offset="1" stop-color="#EE4557"/>
</linearGradient>
<linearGradient id="paint2_linear_784_1292" x1="222.208" y1="252.716" x2="211.605" y2="407.007" gradientUnits="userSpaceOnUse">
<stop offset="0.156307" stop-color="#E91A28"/>
<stop offset="1" stop-color="#EE4557"/>
</linearGradient>
<linearGradient id="paint3_linear_784_1292" x1="218.892" y1="264.804" x2="211.616" y2="371.008" gradientUnits="userSpaceOnUse">
<stop offset="0.156307" stop-color="#E91A28"/>
<stop offset="1" stop-color="#EE4557"/>
</linearGradient>
</defs>
</svg>
