<svg width="155" height="155" viewBox="0 0 155 155" fill="none" xmlns="http://www.w3.org/2000/svg">
<g filter="url(#filter0_d_435_2070)">
<circle cx="77.5" cy="73.5" r="33.5" fill="#FF9655"/>
</g>
<g clip-path="url(#clip0_435_2070)">
<g clip-path="url(#clip1_435_2070)">
<path d="M93.8333 83.0833V84.6666L81.1666 88.625L70.0833 85.5533V87.8333H60.5833V70.4166H73.2024L82.9558 74.0583C83.8249 74.3861 84.5736 74.9707 85.1025 75.7343C85.6313 76.4979 85.9153 77.4044 85.9166 78.3333H89.0833C91.7116 78.3333 93.8333 80.455 93.8333 83.0833ZM66.9166 84.6666V73.5833H63.7499V84.6666H66.9166ZM90.5083 82.4025C90.2549 81.88 89.7008 81.5 89.0833 81.5H80.6124C79.7574 81.5 78.9183 81.3733 78.1108 81.1041L74.3424 79.8533L75.3399 76.845L79.1083 78.0958C79.5833 78.2541 82.7499 78.3333 82.7499 78.3333C82.7499 77.7475 82.3858 77.225 81.8474 77.0191L72.6324 73.5833H70.0833V82.2916L81.1191 85.3158L90.5083 82.4025Z" fill="white"/>
<g clip-path="url(#clip2_435_2070)">
<path d="M91.4059 68.7432L91.4066 68.8069C91.4077 69.6895 91.0772 70.5402 90.4805 71.1905L90.4826 71.1877C89.861 71.8723 89.0204 72.3191 88.1052 72.4512L88.0837 72.454V74.0888C88.0837 74.1647 88.0536 74.2374 87.9999 74.2911C87.9463 74.3447 87.8735 74.3749 87.7976 74.3749H87.7858H87.7865H86.5348C86.4563 74.374 86.3812 74.3424 86.3257 74.2868C86.2701 74.2313 86.2385 74.1562 86.2376 74.0777V72.454C85.8202 72.3982 85.41 72.2974 85.0143 72.1534L85.0552 72.1665C84.4641 71.9688 83.9095 71.6753 83.4135 71.2979L83.4273 71.3083C83.2758 71.1987 83.1304 71.081 82.9916 70.9557L82.9965 70.9598C82.9193 70.8859 82.8653 70.8305 82.8344 70.7936C82.7843 70.7438 82.7547 70.677 82.7515 70.6065C82.7483 70.5359 82.7717 70.4667 82.817 70.4126L82.8164 70.4133L83.7716 69.1609C83.797 69.1282 83.8291 69.1013 83.8658 69.0822C83.9025 69.0631 83.9429 69.0521 83.9843 69.05H83.985C84.026 69.0425 84.0684 69.0463 84.1075 69.0611C84.1465 69.0758 84.1808 69.101 84.2066 69.1338L84.2073 69.1345L84.2253 69.1525C84.8516 69.726 85.6182 70.1241 86.4475 70.3066L86.4794 70.3128C86.6858 70.3599 86.9227 70.387 87.1659 70.387L87.2088 70.3876C87.6875 70.3876 88.1308 70.238 88.4959 69.9831L88.4883 69.988C88.6724 69.8635 88.8215 69.6939 88.9215 69.4954C89.0214 69.2969 89.0687 69.076 89.059 68.854V68.8568C89.059 68.6746 89.0071 68.5049 88.9177 68.3615L88.9198 68.3656C88.8354 68.2226 88.7311 68.0922 88.6102 67.9784L88.6095 67.9777C88.4485 67.8427 88.2714 67.728 88.0823 67.6362L88.0671 67.6293C87.8196 67.5027 87.6164 67.4037 87.4575 67.3321C87.2986 67.2605 87.0513 67.1601 86.7156 67.0308C86.4745 66.932 86.2843 66.8546 86.1448 66.7987C86.0054 66.7428 85.8151 66.6609 85.574 66.5528C85.333 66.4448 85.1397 66.3489 84.9942 66.2653C84.8488 66.1818 84.674 66.0721 84.4699 65.9363C84.291 65.8211 84.1238 65.6889 83.9704 65.5415L83.9711 65.5422C83.8319 65.4013 83.7001 65.2533 83.5763 65.0988L83.5673 65.0877C83.4361 64.9287 83.3272 64.7525 83.2438 64.564L83.2382 64.5495C83.1578 64.3582 83.094 64.1602 83.0477 63.9579L83.0429 63.933C82.9899 63.7008 82.9634 63.4633 82.9639 63.225V63.2084V63.1876C82.9639 62.3218 83.3109 61.5362 83.8741 60.964L83.8734 60.9647C84.5012 60.3121 85.3215 59.8778 86.2141 59.7255L86.239 59.722V58.0491V58.0464C86.239 57.9653 86.273 57.8919 86.327 57.8399C86.3537 57.8121 86.3858 57.79 86.4212 57.7749C86.4567 57.7597 86.4949 57.7519 86.5334 57.752H87.799C87.9569 57.752 88.0851 57.8801 88.0851 58.038V58.0498V58.0491V59.6818C88.4661 59.722 88.8138 59.7975 89.147 59.9056L89.1103 59.8952C89.4283 59.9922 89.6956 60.0982 89.9526 60.2215L89.9166 60.2062C90.1438 60.3191 90.3371 60.4348 90.52 60.5637L90.5061 60.554C90.6908 60.6842 90.8114 60.7738 90.8677 60.8227C90.924 60.8717 90.9705 60.9149 91.0069 60.9523C91.0568 60.9952 91.089 61.055 91.0974 61.1202C91.1059 61.1854 91.0899 61.2514 91.0527 61.3055L91.0534 61.3049L90.3038 62.6598C90.2851 62.7014 90.2555 62.7372 90.218 62.7633C90.1806 62.7894 90.1367 62.8049 90.0912 62.808H90.0905C90.0465 62.8172 90.001 62.8161 89.9575 62.8048C89.914 62.7935 89.8737 62.7723 89.8397 62.7429H89.8404C89.8219 62.7244 89.7772 62.6875 89.706 62.6321C89.6349 62.5767 89.5144 62.4947 89.3444 62.3862C89.1796 62.2805 89.0081 62.1854 88.8311 62.1015L88.802 62.089C88.5888 61.991 88.3672 61.9124 88.1398 61.8542L88.1107 61.8479C87.8525 61.7773 87.586 61.7414 87.3183 61.7413H87.3176C86.8046 61.7178 86.2976 61.8596 85.8712 62.1458L85.8802 62.1403C85.6444 62.297 85.4689 62.5292 85.3825 62.7989C85.2962 63.0685 85.3041 63.3595 85.405 63.624L85.4022 63.6157C85.466 63.7681 85.5588 63.897 85.6752 64.0002L85.6765 64.0009C85.7881 64.1055 85.9072 64.2059 86.0319 64.2994L86.043 64.3071C86.1919 64.4096 86.363 64.5059 86.5424 64.5862L86.5632 64.5945C86.795 64.7026 86.9821 64.7862 87.1243 64.8453C87.2665 64.9044 87.4831 64.9894 87.7741 65.1002C88.102 65.224 88.3525 65.3214 88.5257 65.3925C88.6988 65.4636 88.9339 65.5719 89.2308 65.7174C89.481 65.8349 89.722 65.9708 89.9519 66.124L89.9319 66.1116C90.1466 66.264 90.3336 66.4163 90.5117 66.5791L90.5075 66.575C90.6994 66.7426 90.8629 66.9366 90.9931 67.1534L90.9993 67.1645C91.1143 67.3674 91.2134 67.6037 91.2854 67.8509L91.2916 67.8745C91.3671 68.1273 91.4101 68.4183 91.4101 68.7189V68.748V68.7466L91.4059 68.7432Z" fill="white"/>
</g>
</g>
</g>
<defs>
<filter id="filter0_d_435_2070" x="0" y="0" width="155" height="155" filterUnits="userSpaceOnUse" color-interpolation-filters="sRGB">
<feFlood flood-opacity="0" result="BackgroundImageFix"/>
<feColorMatrix in="SourceAlpha" type="matrix" values="0 0 0 0 0 0 0 0 0 0 0 0 0 0 0 0 0 0 127 0" result="hardAlpha"/>
<feOffset dy="4"/>
<feGaussianBlur stdDeviation="22"/>
<feComposite in2="hardAlpha" operator="out"/>
<feColorMatrix type="matrix" values="0 0 0 0 1 0 0 0 0 0.588235 0 0 0 0 0.333333 0 0 0 0.3 0"/>
<feBlend mode="normal" in2="BackgroundImageFix" result="effect1_dropShadow_435_2070"/>
<feBlend mode="normal" in="SourceGraphic" in2="effect1_dropShadow_435_2070" result="shape"/>
</filter>
<clipPath id="clip0_435_2070">
<rect width="40" height="40" fill="white" transform="matrix(-1 0 0 1 97 52)"/>
</clipPath>
<clipPath id="clip1_435_2070">
<rect width="38" height="38" fill="white" transform="translate(61 54)"/>
</clipPath>
<clipPath id="clip2_435_2070">
<rect width="8.3125" height="16.625" fill="white" transform="translate(82.75 57.75)"/>
</clipPath>
</defs>
</svg>
