<svg width="155" height="155" viewBox="0 0 155 155" fill="none" xmlns="http://www.w3.org/2000/svg">
<g filter="url(#filter0_d_435_2052)">
<circle cx="77.5" cy="73.5" r="33.5" fill="#FB7586"/>
</g>
<path d="M64.8046 79.3398C65.7823 78.3613 66.9248 77.5626 68.1796 76.9804C66.4101 75.5468 65.2812 73.3593 65.2812 70.9062C65.2812 66.5781 68.8905 63.0273 73.2187 63.0937C77.4804 63.1601 80.914 66.6328 80.914 70.9062C80.914 73.3593 79.7812 75.5468 78.0155 76.9804C79.2706 77.5622 80.4131 78.3609 81.3905 79.3398C83.5233 81.4765 84.7343 84.2968 84.8124 87.3046C84.8134 87.3463 84.8061 87.3878 84.7909 87.4266C84.7757 87.4654 84.7528 87.5008 84.7237 87.5307C84.6946 87.5605 84.6598 87.5842 84.6213 87.6004C84.5829 87.6166 84.5416 87.625 84.4999 87.6249H82.3124C82.1444 87.6249 82.0038 87.4921 81.9999 87.3242C81.9257 85.0585 81.0077 82.9374 79.3944 81.3281C78.5689 80.4981 77.5869 79.8402 76.5054 79.3923C75.4239 78.9444 74.2643 78.7154 73.0937 78.7187C70.7147 78.7187 68.4765 79.6445 66.7929 81.3281C65.1835 82.9374 64.2655 85.0585 64.1874 87.3242C64.1835 87.4921 64.0429 87.6249 63.8749 87.6249H61.6874C61.6457 87.625 61.6044 87.6166 61.566 87.6004C61.5275 87.5842 61.4927 87.5605 61.4636 87.5307C61.4345 87.5008 61.4116 87.4654 61.3964 87.4266C61.3812 87.3878 61.3739 87.3463 61.3749 87.3046C61.453 84.2968 62.664 81.4765 64.8046 79.3398ZM73.0937 75.9062C74.4296 75.9062 75.6874 75.3867 76.6288 74.4413C77.1013 73.9726 77.4745 73.4135 77.7261 72.7974C77.9778 72.1813 78.1028 71.5209 78.0937 70.8554C78.0819 69.5742 77.5702 68.3359 76.6757 67.4179C75.7382 66.457 74.4843 65.9218 73.1444 65.9062C71.8202 65.8945 70.5351 66.4101 69.5897 67.3359C68.621 68.2851 68.0897 69.5546 68.0897 70.9062C68.0897 72.2421 68.6093 73.496 69.5546 74.4413C70.0184 74.9073 70.57 75.2767 71.1774 75.5282C71.7849 75.7796 72.4362 75.9081 73.0937 75.9062ZM82.8788 71.9374C82.914 71.5976 82.9335 71.2538 82.9335 70.9062C82.9335 70.2851 82.8749 69.6796 82.7655 69.0898C82.7382 68.9492 82.8124 68.8046 82.9413 68.746C83.4726 68.5078 83.9608 68.1796 84.3827 67.7656C84.8798 67.2836 85.271 66.7032 85.5313 66.0616C85.7916 65.42 85.9153 64.7311 85.8944 64.039C85.8593 62.7851 85.3554 61.5937 84.4765 60.6953C83.5116 59.707 82.2147 59.1679 80.8358 59.1835C79.5897 59.1953 78.3866 59.6757 77.4765 60.5273C77.1679 60.8163 76.9022 61.1367 76.6796 61.4804C76.6015 61.6015 76.4491 61.6523 76.3163 61.6054C75.6288 61.3671 74.9022 61.1992 74.1562 61.121C73.9374 61.0976 73.8124 60.8632 73.9101 60.6679C75.1796 58.1562 77.7733 56.4218 80.7733 56.3749C85.1054 56.3085 88.7147 59.8593 88.7147 64.1835C88.7147 66.6367 87.5858 68.8242 85.8163 70.2578C87.0585 70.832 88.203 71.6249 89.1952 72.6171C91.3358 74.7538 92.5468 77.5742 92.6249 80.5859C92.6259 80.6276 92.6186 80.669 92.6034 80.7079C92.5882 80.7467 92.5653 80.7821 92.5362 80.8119C92.5071 80.8418 92.4723 80.8655 92.4338 80.8817C92.3954 80.8979 92.3541 80.9062 92.3124 80.9062H90.121C89.953 80.9062 89.8124 80.7734 89.8085 80.6054C89.7343 78.3398 88.8163 76.2187 87.203 74.6093C86.0546 73.4609 84.6483 72.664 83.1132 72.2773C82.9608 72.2382 82.8593 72.0937 82.8788 71.9374V71.9374Z" fill="white"/>
<defs>
<filter id="filter0_d_435_2052" x="0" y="0" width="155" height="155" filterUnits="userSpaceOnUse" color-interpolation-filters="sRGB">
<feFlood flood-opacity="0" result="BackgroundImageFix"/>
<feColorMatrix in="SourceAlpha" type="matrix" values="0 0 0 0 0 0 0 0 0 0 0 0 0 0 0 0 0 0 127 0" result="hardAlpha"/>
<feOffset dy="4"/>
<feGaussianBlur stdDeviation="22"/>
<feComposite in2="hardAlpha" operator="out"/>
<feColorMatrix type="matrix" values="0 0 0 0 0.984314 0 0 0 0 0.466667 0 0 0 0 0.533333 0 0 0 0.3 0"/>
<feBlend mode="normal" in2="BackgroundImageFix" result="effect1_dropShadow_435_2052"/>
<feBlend mode="normal" in="SourceGraphic" in2="effect1_dropShadow_435_2052" result="shape"/>
</filter>
</defs>
</svg>
