<svg width="155" height="155" viewBox="0 0 155 155" fill="none" xmlns="http://www.w3.org/2000/svg">
<g filter="url(#filter0_d_784_1293)">
<circle cx="77.5" cy="73.5" r="33.5" fill="#F8BE28"/>
</g>
<path d="M91.7593 63.6154H86.25L84.9375 59.8736C84.8468 59.6176 84.6807 59.3963 84.4617 59.2399C84.2427 59.0835 83.9816 58.9998 83.7141 59H71.2859C70.739 59 70.2488 59.3503 70.0666 59.8736L68.75 63.6154H63.2407C61.4502 63.6154 60 65.0907 60 66.9121V85.7033C60 87.5247 61.4502 89 63.2407 89H91.7593C93.5498 89 95 87.5247 95 85.7033V66.9121C95 65.0907 93.5498 63.6154 91.7593 63.6154ZM92.0833 85.7033C92.0833 85.8846 91.9375 86.033 91.7593 86.033H63.2407C63.0625 86.033 62.9167 85.8846 62.9167 85.7033V66.9121C62.9167 66.7308 63.0625 66.5824 63.2407 66.5824H70.8038L71.4965 64.6126L72.4242 61.967H82.5718L83.4994 64.6126L84.1921 66.5824H91.7593C91.9375 66.5824 92.0833 66.7308 92.0833 66.9121V85.7033ZM77.5 69.2198C73.919 69.2198 71.0185 72.1703 71.0185 75.8132C71.0185 79.456 73.919 82.4066 77.5 82.4066C81.081 82.4066 83.9815 79.456 83.9815 75.8132C83.9815 72.1703 81.081 69.2198 77.5 69.2198ZM77.5 79.7692C75.353 79.7692 73.6111 77.9973 73.6111 75.8132C73.6111 73.6291 75.353 71.8571 77.5 71.8571C79.647 71.8571 81.3889 73.6291 81.3889 75.8132C81.3889 77.9973 79.647 79.7692 77.5 79.7692Z" fill="white"/>
<defs>
<filter id="filter0_d_784_1293" x="0" y="0" width="155" height="155" filterUnits="userSpaceOnUse" color-interpolation-filters="sRGB">
<feFlood flood-opacity="0" result="BackgroundImageFix"/>
<feColorMatrix in="SourceAlpha" type="matrix" values="0 0 0 0 0 0 0 0 0 0 0 0 0 0 0 0 0 0 127 0" result="hardAlpha"/>
<feOffset dy="4"/>
<feGaussianBlur stdDeviation="22"/>
<feComposite in2="hardAlpha" operator="out"/>
<feColorMatrix type="matrix" values="0 0 0 0 0.972549 0 0 0 0 0.745098 0 0 0 0 0.156863 0 0 0 0.3 0"/>
<feBlend mode="normal" in2="BackgroundImageFix" result="effect1_dropShadow_784_1293"/>
<feBlend mode="normal" in="SourceGraphic" in2="effect1_dropShadow_784_1293" result="shape"/>
</filter>
</defs>
</svg>
