<svg width="155" height="155" viewBox="0 0 155 155" fill="none" xmlns="http://www.w3.org/2000/svg">
<g filter="url(#filter0_d_435_2068)">
<circle cx="77.5" cy="73.5" r="33.5" fill="#F167DB"/>
</g>
<path d="M65.1875 65.6875C64.8394 65.6875 64.5056 65.8422 64.2594 66.1177C64.0133 66.3931 63.875 66.7667 63.875 67.1562C63.875 67.5458 64.0133 67.9194 64.2594 68.1948C64.5056 68.4703 64.8394 68.625 65.1875 68.625H83.5625C83.9106 68.625 84.2444 68.4703 84.4906 68.1948C84.7367 67.9194 84.875 67.5458 84.875 67.1562C84.875 66.7667 84.7367 66.3931 84.4906 66.1177C84.2444 65.8422 83.9106 65.6875 83.5625 65.6875H65.1875ZM65.1875 71.5625C64.8394 71.5625 64.5056 71.7172 64.2594 71.9927C64.0133 72.2681 63.875 72.6417 63.875 73.0312V78.9062C63.875 79.2958 64.0133 79.6694 64.2594 79.9448C64.5056 80.2203 64.8394 80.375 65.1875 80.375H70.4375C70.7856 80.375 71.1194 80.2203 71.3656 79.9448C71.6117 79.6694 71.75 79.2958 71.75 78.9062V73.0312C71.75 72.6417 71.6117 72.2681 71.3656 71.9927C71.1194 71.7172 70.7856 71.5625 70.4375 71.5625H65.1875ZM66.5 77.4375V74.5H69.125V77.4375H66.5ZM75.6875 71.5625C75.3394 71.5625 75.0056 71.7172 74.7594 71.9927C74.5133 72.2681 74.375 72.6417 74.375 73.0312C74.375 73.4208 74.5133 73.7944 74.7594 74.0698C75.0056 74.3453 75.3394 74.5 75.6875 74.5H83.5625C83.9106 74.5 84.2444 74.3453 84.4906 74.0698C84.7367 73.7944 84.875 73.4208 84.875 73.0312C84.875 72.6417 84.7367 72.2681 84.4906 71.9927C84.2444 71.7172 83.9106 71.5625 83.5625 71.5625H75.6875ZM75.6875 77.4375C75.3394 77.4375 75.0056 77.5922 74.7594 77.8677C74.5133 78.1431 74.375 78.5167 74.375 78.9062C74.375 79.2958 74.5133 79.6694 74.7594 79.9448C75.0056 80.2203 75.3394 80.375 75.6875 80.375H83.5625C83.9106 80.375 84.2444 80.2203 84.4906 79.9448C84.7367 79.6694 84.875 79.2958 84.875 78.9062C84.875 78.5167 84.7367 78.1431 84.4906 77.8677C84.2444 77.5922 83.9106 77.4375 83.5625 77.4375H75.6875ZM58.625 62.75C58.625 61.1919 59.1781 59.6975 60.1627 58.5957C61.1473 57.494 62.4826 56.875 63.875 56.875H84.875C86.2674 56.875 87.6027 57.494 88.5873 58.5957C89.5719 59.6975 90.125 61.1919 90.125 62.75C91.5174 62.75 92.8527 63.369 93.8373 64.4707C94.8219 65.5725 95.375 67.0669 95.375 68.625V81.8438C95.375 83.7914 94.6836 85.6593 93.4529 87.0366C92.2222 88.4138 90.553 89.1875 88.8125 89.1875H65.1875C63.447 89.1875 61.7778 88.4138 60.5471 87.0366C59.3164 85.6593 58.625 83.7914 58.625 81.8438V62.75ZM88.8125 81.8438C88.4644 81.8438 88.1306 81.689 87.8844 81.4136C87.6383 81.1381 87.5 80.7645 87.5 80.375V62.75C87.5 61.9709 87.2234 61.2238 86.7312 60.6729C86.2389 60.122 85.5712 59.8125 84.875 59.8125H63.875C63.1788 59.8125 62.5111 60.122 62.0188 60.6729C61.5266 61.2238 61.25 61.9709 61.25 62.75V81.8438C61.25 83.0124 61.6648 84.1331 62.4033 84.9594C63.1417 85.7858 64.1432 86.25 65.1875 86.25H88.8125C89.8568 86.25 90.8583 85.7858 91.5967 84.9594C92.3352 84.1331 92.75 83.0124 92.75 81.8438V68.625C92.75 67.8459 92.4734 67.0988 91.9812 66.5479C91.4889 65.997 90.8212 65.6875 90.125 65.6875V80.375C90.125 80.7645 89.9867 81.1381 89.7406 81.4136C89.4944 81.689 89.1606 81.8438 88.8125 81.8438Z" fill="white"/>
<defs>
<filter id="filter0_d_435_2068" x="0" y="0" width="155" height="155" filterUnits="userSpaceOnUse" color-interpolation-filters="sRGB">
<feFlood flood-opacity="0" result="BackgroundImageFix"/>
<feColorMatrix in="SourceAlpha" type="matrix" values="0 0 0 0 0 0 0 0 0 0 0 0 0 0 0 0 0 0 127 0" result="hardAlpha"/>
<feOffset dy="4"/>
<feGaussianBlur stdDeviation="22"/>
<feComposite in2="hardAlpha" operator="out"/>
<feColorMatrix type="matrix" values="0 0 0 0 0.945098 0 0 0 0 0.403922 0 0 0 0 0.858824 0 0 0 0.3 0"/>
<feBlend mode="normal" in2="BackgroundImageFix" result="effect1_dropShadow_435_2068"/>
<feBlend mode="normal" in="SourceGraphic" in2="effect1_dropShadow_435_2068" result="shape"/>
</filter>
</defs>
</svg>
