<svg width="155" height="155" viewBox="0 0 155 155" fill="none" xmlns="http://www.w3.org/2000/svg">
<g filter="url(#filter0_d_435_2055)">
<circle cx="77.5" cy="73.5" r="33.5" fill="#6ECAC9"/>
</g>
<path d="M69.5001 83.2083V61.25H93.5834V83.2083C93.5834 84.1476 93.2103 85.0485 92.5461 85.7127C91.8819 86.3769 90.9811 86.75 90.0417 86.75H65.9584M83.6667 66.9167H87.9167V72.5833H83.6667V66.9167ZM73.7501 78.25H89.3334H73.7501ZM73.7501 72.5833H79.4167H73.7501ZM73.7501 66.9167H79.4167H73.7501ZM69.5001 83.2083C69.5001 84.1476 69.1269 85.0485 68.4628 85.7127C67.7986 86.3769 66.8977 86.75 65.9584 86.75C65.0191 86.75 64.1183 86.3769 63.4541 85.7127C62.7899 85.0485 62.4167 84.1476 62.4167 83.2083V66.9167H69.5355L69.5001 83.2083Z" stroke="white" stroke-width="3"/>
<defs>
<filter id="filter0_d_435_2055" x="0" y="0" width="155" height="155" filterUnits="userSpaceOnUse" color-interpolation-filters="sRGB">
<feFlood flood-opacity="0" result="BackgroundImageFix"/>
<feColorMatrix in="SourceAlpha" type="matrix" values="0 0 0 0 0 0 0 0 0 0 0 0 0 0 0 0 0 0 127 0" result="hardAlpha"/>
<feOffset dy="4"/>
<feGaussianBlur stdDeviation="22"/>
<feComposite in2="hardAlpha" operator="out"/>
<feColorMatrix type="matrix" values="0 0 0 0 0.431373 0 0 0 0 0.792157 0 0 0 0 0.788235 0 0 0 0.3 0"/>
<feBlend mode="normal" in2="BackgroundImageFix" result="effect1_dropShadow_435_2055"/>
<feBlend mode="normal" in="SourceGraphic" in2="effect1_dropShadow_435_2055" result="shape"/>
</filter>
</defs>
</svg>
