<svg width="155" height="155" viewBox="0 0 155 155" fill="none" xmlns="http://www.w3.org/2000/svg">
<g filter="url(#filter0_d_435_2067)">
<circle cx="77.5" cy="73.5" r="33.5" fill="#B888F8"/>
</g>
<path d="M68.25 83.8083C70.7433 85.7724 73.8261 86.8381 77 86.8334C80.3025 86.8334 83.3417 85.7033 85.75 83.8083" stroke="white" stroke-width="3"/>
<path d="M72.8335 59.1226C67.0427 60.9017 62.8335 66.2926 62.8335 72.6667C62.8335 74.2709 63.1002 75.8126 63.5918 77.2501" stroke="white" stroke-width="3"/>
<path d="M81.1667 59.1226C86.9576 60.9017 91.1667 66.2926 91.1667 72.6667C91.1667 74.2709 90.9001 75.8126 90.4084 77.2501" stroke="white" stroke-width="3"/>
<path d="M92.8333 81C92.8333 82.1184 92.3933 83.1334 91.6767 83.8817C91.0074 84.5809 90.1156 85.0253 89.1544 85.1386C88.1932 85.2519 87.2225 85.027 86.409 84.5026C85.5956 83.9781 84.99 83.1869 84.6964 82.2646C84.4027 81.3424 84.4393 80.3467 84.7999 79.4484C85.1604 78.5502 85.8224 77.8056 86.6722 77.3422C87.5219 76.8789 88.5065 76.7259 89.4568 76.9095C90.4071 77.093 91.2639 77.6017 91.88 78.3481C92.4962 79.0945 92.8332 80.0321 92.8333 81V81Z" stroke="white" stroke-width="3" stroke-linecap="round" stroke-linejoin="round"/>
<path d="M69.5001 81C69.5001 82.1184 69.0601 83.1334 68.3434 83.8817C67.6742 84.5809 66.7824 85.0253 65.8212 85.1386C64.8599 85.2519 63.8893 85.027 63.0758 84.5026C62.2623 83.9781 61.6568 83.1869 61.3631 82.2646C61.0695 81.3424 61.1061 80.3467 61.4666 79.4484C61.8271 78.5502 62.4891 77.8056 63.3389 77.3422C64.1887 76.8789 65.1732 76.7259 66.1236 76.9095C67.0739 77.093 67.9306 77.6017 68.5468 78.3481C69.1629 79.0945 69.5 80.0321 69.5001 81Z" stroke="white" stroke-width="3" stroke-linecap="round" stroke-linejoin="round"/>
<path d="M81.1668 58.5C81.1668 59.6183 80.7268 60.6334 80.0102 61.3817C79.3409 62.0809 78.4491 62.5253 77.4879 62.6386C76.5267 62.7519 75.556 62.527 74.7425 62.0026C73.929 61.4781 73.3235 60.6869 73.0299 59.7646C72.7362 58.8424 72.7728 57.8467 73.1334 56.9484C73.4939 56.0502 74.1559 55.3056 75.0057 54.8423C75.8554 54.3789 76.84 54.2259 77.7903 54.4095C78.7406 54.593 79.5974 55.1017 80.2135 55.8481C80.8296 56.5945 81.1667 57.5321 81.1668 58.5V58.5Z" stroke="white" stroke-width="3" stroke-linecap="round" stroke-linejoin="round"/>
<defs>
<filter id="filter0_d_435_2067" x="0" y="0" width="155" height="155" filterUnits="userSpaceOnUse" color-interpolation-filters="sRGB">
<feFlood flood-opacity="0" result="BackgroundImageFix"/>
<feColorMatrix in="SourceAlpha" type="matrix" values="0 0 0 0 0 0 0 0 0 0 0 0 0 0 0 0 0 0 127 0" result="hardAlpha"/>
<feOffset dy="4"/>
<feGaussianBlur stdDeviation="22"/>
<feComposite in2="hardAlpha" operator="out"/>
<feColorMatrix type="matrix" values="0 0 0 0 0.721569 0 0 0 0 0.533333 0 0 0 0 0.972549 0 0 0 0.3 0"/>
<feBlend mode="normal" in2="BackgroundImageFix" result="effect1_dropShadow_435_2067"/>
<feBlend mode="normal" in="SourceGraphic" in2="effect1_dropShadow_435_2067" result="shape"/>
</filter>
</defs>
</svg>
