<?xml version="1.0" encoding="utf-8"?>
<!-- Generator: Adobe Illustrator 26.0.1, SVG Export Plug-In . SVG Version: 6.00 Build 0)  -->
<svg version="1.1" xmlns="http://www.w3.org/2000/svg" xmlns:xlink="http://www.w3.org/1999/xlink" x="0px" y="0px"
	 viewBox="0 0 150 150" style="enable-background:new 0 0 150 150;" xml:space="preserve">
<style type="text/css">
	.st0{display:none;}
	.st1{display:inline;fill:#F9F9F9;}
	.st2{display:inline;fill:#E91A28;}
	.st3{display:inline;fill:#FCFCFC;}
	.st4{fill:#FCFCFC;}
	.st5{fill:#E91A28;}
	.st6{display:inline;}
	.st7{fill:#FFFFFF;}
</style>
<g id="Layer_1" class="st0">
	<rect x="37.9" y="41.3" class="st1" width="70.5" height="66"/>
	<path class="st2" d="M144.1,38c-1.4-7.7-7.8-13.4-15.3-15.1c-11.2-2.5-31.9-4.2-54.3-4.2c-22.4,0-43.4,1.8-54.7,4.2
		c-7.5,1.8-13.9,7-15.3,15.1c-1.4,8.8-2.7,21.1-2.7,37s1.4,28.2,3.1,37c1.4,7.7,7.8,13.4,15.3,15.1c11.9,2.5,32.3,4.2,54.7,4.2
		s42.8-1.8,54.7-4.2c7.5-1.8,13.9-7,15.3-15.1c1.4-8.8,3.1-21.5,3.4-37C147.5,59.2,145.8,46.8,144.1,38z M56.2,99.6V50.4L97.6,75
		L56.2,99.6z"/>
</g>
<g id="Layer_2" class="st0">
	<rect x="33.1" y="32.1" class="st3" width="83.9" height="92.3"/>
	<path class="st2" d="M75,3.2C35.4,3.2,3.2,35.4,3.2,75s32.2,71.8,71.8,71.8s71.8-32.2,71.8-71.8S114.6,3.2,75,3.2z M110.1,61
		c0,0.7,0,1.5,0,2.2c0,22.8-17.4,49.2-49.2,49.2c-9.8,0-18.9-2.9-26.5-7.8c1.4,0.2,2.7,0.2,4.1,0.2c8.1,0,15.6-2.8,21.5-7.4
		c-7.6-0.1-13.9-5.1-16.2-12c1.1,0.2,2.1,0.3,3.3,0.3c1.6,0,3.1-0.2,4.6-0.6c-7.9-1.6-13.9-8.6-13.9-17c0-0.1,0-0.1,0-0.2
		c2.3,1.3,5,2.1,7.8,2.2c-4.6-3.1-7.7-8.4-7.7-14.4c0-3.2,0.8-6.1,2.3-8.7c8.5,10.5,21.3,17.3,35.6,18.1c-0.3-1.3-0.5-2.6-0.5-3.9
		c0-9.6,7.7-17.3,17.3-17.3c5,0,9.5,2.1,12.6,5.5c3.9-0.8,7.6-2.2,11-4.2c-1.3,4-4,7.4-7.6,9.6c3.5-0.4,6.8-1.3,9.9-2.7
		C116.4,55.5,113.5,58.6,110.1,61z"/>
</g>
<g id="Layer_3">
	<rect x="31.7" y="19.8" class="st4" width="91.9" height="101.1"/>
	<path class="st5" d="M45.6,3.2c-23.4,0-42.4,19-42.4,42.4v58.8c0,23.4,19,42.4,42.4,42.4h58.8c23.4,0,42.4-19,42.4-42.4V45.6
		c0-23.4-19-42.4-42.4-42.4H45.6z M114.2,29.3c3.6,0,6.5,2.9,6.5,6.5s-2.9,6.5-6.5,6.5c-3.6,0-6.5-2.9-6.5-6.5
		S110.6,29.3,114.2,29.3z M75,39.1c19.8,0,35.9,16.1,35.9,35.9S94.8,110.9,75,110.9S39.1,94.8,39.1,75S55.2,39.1,75,39.1z M75,45.6
		c-16.2,0-29.4,13.2-29.4,29.4s13.2,29.4,29.4,29.4s29.4-13.2,29.4-29.4S91.2,45.6,75,45.6z"/>
</g>
<g id="Layer_4" class="st0">
	<g class="st6">
		<path class="st5" d="M75,2.2C34.8,2.2,2.2,34.8,2.2,75s32.6,72.8,72.8,72.8s72.8-32.6,72.8-72.8S115.2,2.2,75,2.2z"/>
		<path class="st7" d="M83.4,94.3h18.8l3-19.1H83.4V64.7c0-8,2.6-15,10-15h12V33c-2.1-0.3-6.5-0.9-14.9-0.9
			c-17.5,0-27.8,9.3-27.8,30.3v12.7h-18v19.1h18v52.6c3.6,0.5,7.2,0.9,10.9,0.9c3.4,0,6.6-0.3,9.9-0.7V94.3z"/>
	</g>
</g>
</svg>
