<svg width="39" height="39" viewBox="0 0 39 39" fill="none" xmlns="http://www.w3.org/2000/svg">
<path d="M19.1229 12.7491C15.6106 12.7491 12.7443 15.6154 12.7443 19.1277C12.7443 22.64 15.6106 25.5063 19.1229 25.5063C22.6352 25.5063 25.5015 22.64 25.5015 19.1277C25.5015 15.6154 22.6352 12.7491 19.1229 12.7491ZM38.254 19.1277C38.254 16.4863 38.2779 13.8688 38.1295 11.2322C37.9812 8.16968 37.2826 5.45172 35.0431 3.21226C32.7989 0.968024 30.0857 0.274177 27.0232 0.125837C24.3818 -0.0225025 21.7643 0.00142332 19.1277 0.00142332C16.4863 0.00142332 13.8688 -0.0225025 11.2322 0.125837C8.16968 0.274177 5.45172 0.97281 3.21226 3.21226C0.968025 5.4565 0.274177 8.16968 0.125837 11.2322C-0.0225025 13.8736 0.00142332 16.4911 0.00142332 19.1277C0.00142332 21.7643 -0.0225025 24.3866 0.125837 27.0232C0.274177 30.0857 0.97281 32.8037 3.21226 35.0431C5.4565 37.2874 8.16968 37.9812 11.2322 38.1295C13.8736 38.2779 16.4911 38.254 19.1277 38.254C21.7691 38.254 24.3866 38.2779 27.0232 38.1295C30.0857 37.9812 32.8037 37.2826 35.0431 35.0431C37.2874 32.7989 37.9812 30.0857 38.1295 27.0232C38.2827 24.3866 38.254 21.7691 38.254 19.1277ZM19.1229 28.942C13.6918 28.942 9.30855 24.5588 9.30855 19.1277C9.30855 13.6965 13.6918 9.31334 19.1229 9.31334C24.5541 9.31334 28.9373 13.6965 28.9373 19.1277C28.9373 24.5588 24.5541 28.942 19.1229 28.942ZM29.3392 11.2035C28.0711 11.2035 27.0471 10.1795 27.0471 8.91138C27.0471 7.64332 28.0711 6.61929 29.3392 6.61929C30.6073 6.61929 31.6313 7.64332 31.6313 8.91138C31.6317 9.21249 31.5727 9.51072 31.4576 9.78898C31.3425 10.0672 31.1737 10.3201 30.9608 10.533C30.7479 10.7459 30.4951 10.9147 30.2168 11.0298C29.9385 11.1448 29.6403 11.2039 29.3392 11.2035Z" fill="url(#paint0_linear_179_660)"/>
<defs>
<linearGradient id="paint0_linear_179_660" x1="20.842" y1="12.7047" x2="19.0259" y2="38.2481" gradientUnits="userSpaceOnUse">
<stop offset="0.156307" stop-color="#E91A28"/>
<stop offset="1" stop-color="#EE4557"/>
</linearGradient>
</defs>
</svg>
