<svg width="25" height="31" viewBox="0 0 25 31" fill="none" xmlns="http://www.w3.org/2000/svg">
<path d="M12.5 0.1875C9.31028 0.191263 6.25227 1.46005 3.99679 3.71553C1.74131 5.97101 0.472526 9.02902 0.468763 12.2188C0.464942 14.8254 1.3164 17.3613 2.89251 19.4375C2.89251 19.4375 3.22064 19.8695 3.27423 19.9319L12.5 30.8125L21.7302 19.9264C21.7783 19.8684 22.1075 19.4375 22.1075 19.4375L22.1086 19.4342C23.6839 17.359 24.535 14.8242 24.5313 12.2188C24.5275 9.02902 23.2587 5.97101 21.0032 3.71553C18.7478 1.46005 15.6897 0.191263 12.5 0.1875ZM12.5 16.5938C11.6347 16.5938 10.7889 16.3372 10.0694 15.8564C9.34993 15.3757 8.78917 14.6924 8.45804 13.893C8.12691 13.0936 8.04027 12.2139 8.20908 11.3652C8.37789 10.5166 8.79456 9.73701 9.40642 9.12516C10.0183 8.5133 10.7978 8.09662 11.6465 7.92781C12.4952 7.759 13.3748 7.84564 14.1743 8.17678C14.9737 8.50791 15.657 9.06867 16.1377 9.78813C16.6184 10.5076 16.875 11.3535 16.875 12.2188C16.8736 13.3786 16.4122 14.4906 15.592 15.3107C14.7718 16.1309 13.6599 16.5923 12.5 16.5938Z" fill="url(#paint0_linear_179_735)"/>
<defs>
<linearGradient id="paint0_linear_179_735" x1="13.5781" y1="10.3582" x2="11.7334" y2="30.7431" gradientUnits="userSpaceOnUse">
<stop offset="0.156307" stop-color="#E91A28"/>
<stop offset="1" stop-color="#EE4557"/>
</linearGradient>
</defs>
</svg>
