<svg width="40" height="40" viewBox="0 0 40 40" fill="none" xmlns="http://www.w3.org/2000/svg">
<path d="M19.6875 0C8.81543 0 0 8.81543 0 19.6875C0 30.5596 8.81543 39.375 19.6875 39.375C30.5596 39.375 39.375 30.5596 39.375 19.6875C39.375 8.81543 30.5596 0 19.6875 0ZM29.1489 14.8403C29.1621 15.0469 29.1621 15.2622 29.1621 15.4731C29.1621 21.9243 24.249 29.3555 15.271 29.3555C12.5024 29.3555 9.93604 28.5513 7.77393 27.167C8.16943 27.2109 8.54736 27.2285 8.95166 27.2285C11.2368 27.2285 13.3374 26.4551 15.0117 25.1455C12.8672 25.1016 11.0654 23.6953 10.4502 21.7617C11.2017 21.8716 11.8784 21.8716 12.6519 21.6738C11.5476 21.4495 10.5551 20.8498 9.84294 19.9766C9.13077 19.1034 8.74286 18.0106 8.74512 16.8838V16.8223C9.39111 17.187 10.1514 17.4111 10.9468 17.4419C10.2781 16.9963 9.72975 16.3925 9.35029 15.6842C8.97084 14.9759 8.77203 14.1849 8.77148 13.3813C8.77148 12.4717 9.00879 11.6411 9.43506 10.9204C10.6607 12.4292 12.1901 13.6632 13.9239 14.5422C15.6577 15.4212 17.5571 15.9256 19.4985 16.0225C18.8086 12.7046 21.2871 10.0195 24.2666 10.0195C25.6729 10.0195 26.9385 10.6084 27.8306 11.5576C28.9336 11.3511 29.9883 10.938 30.9287 10.3843C30.564 11.5137 29.7993 12.4673 28.7842 13.0693C29.7686 12.9639 30.7178 12.6914 31.5967 12.3091C30.9331 13.2847 30.1025 14.1504 29.1489 14.8403Z" fill="url(#paint0_linear_179_661)"/>
<defs>
<linearGradient id="paint0_linear_179_661" x1="21.4516" y1="13.0766" x2="19.5823" y2="39.3675" gradientUnits="userSpaceOnUse">
<stop offset="0.156307" stop-color="#E91A28"/>
<stop offset="1" stop-color="#EE4557"/>
</linearGradient>
</defs>
</svg>
